<svg xmlns="http://www.w3.org/2000/svg" width="24" height="24" viewBox="0 0 24 24" fill="none">
  <path d="M10.519 13.3435C13.0573 12.9149 14.5074 10.9373 14.5074 8.16812V7.93425C14.5074 4.76974 12.1668 2.4624 8.37607 2.4624H6.39458C2.30733 2.4624 0 4.76974 0 8.79045V11.4324C0 15.7183 2.43943 17.8906 6.75761 17.8906H14.9654V13.3435H10.519ZM7.28992 10.9676C5.77323 10.9676 4.71839 9.91281 4.71839 8.46265C4.71839 6.97922 5.77323 5.92438 7.28992 5.92438C8.83891 5.92438 9.89375 6.97922 9.89375 8.46265C9.88885 9.91574 8.83402 10.9676 7.28992 10.9676Z" fill="white"/>
</svg>